<?xml version="1.0" standalone="no"?>
<!DOCTYPE svg PUBLIC "-//W3C//DTD SVG 20010904//EN"
 "http://www.w3.org/TR/2001/REC-SVG-20010904/DTD/svg10.dtd">
<svg version="1.0" xmlns="http://www.w3.org/2000/svg"
 width="95.000000pt" height="95.000000pt" viewBox="0 0 95.000000 95.000000"
 preserveAspectRatio="xMidYMid meet">

<g transform="translate(0.000000,95.000000) scale(0.100000,-0.100000)"
fill="#000000" stroke="none">
<path d="M94 520 c0 -80 2 -112 3 -72 2 39 2 105 0 145 -1 39 -3 7 -3 -73z"/>
<path d="M302 540 c0 -14 2 -19 5 -12 2 6 2 18 0 25 -3 6 -5 1 -5 -13z"/>
<path d="M360 544 c-8 -10 -10 -15 -5 -12 6 4 17 3 25 -2 12 -7 12 -12 -3 -27
-15 -18 -15 -19 3 -19 15 0 20 7 21 31 0 16 3 24 6 18 2 -7 9 -13 14 -13 6 0
5 9 -1 21 -9 15 -15 18 -25 9 -10 -8 -14 -8 -17 1 -2 7 -9 5 -18 -7z"/>
<path d="M445 540 c-3 -6 1 -7 9 -4 17 7 22 -11 6 -21 -5 -3 -10 -11 -10 -18
0 -6 7 -1 16 11 15 21 12 42 -6 42 -5 0 -12 -4 -15 -10z"/>
<path d="M629 533 c-13 -16 -12 -17 4 -4 16 13 21 21 13 21 -2 0 -10 -8 -17
-17z"/>
<path d="M556 517 c3 -10 9 -15 12 -12 3 3 0 11 -7 18 -10 9 -11 8 -5 -6z"/>
<path d="M499 503 c-13 -16 -12 -17 4 -4 9 7 17 15 17 17 0 8 -8 3 -21 -13z"/>
<path d="M421 494 c0 -11 3 -14 6 -6 3 7 2 16 -1 19 -3 4 -6 -2 -5 -13z"/>
<path d="M461 403 c1 -5 0 -10 -1 -13 -9 -17 -4 -57 6 -53 6 2 11 12 10 21 0
9 5 16 12 15 15 -4 16 9 0 25 -13 13 -29 16 -27 5z"/>
<path d="M148 363 c34 -2 90 -2 125 0 34 2 6 3 -63 3 -69 0 -97 -1 -62 -3z"/>
<path d="M348 363 c7 -3 16 -2 19 1 4 3 -2 6 -13 5 -11 0 -14 -3 -6 -6z"/>
<path d="M632 363 c37 -2 100 -2 140 0 40 1 10 3 -67 3 -77 0 -110 -1 -73 -3z"/>
</g>
</svg>
